<svg xmlns="http://www.w3.org/2000/svg" viewBox="0 0 480 180" width="480" height="180">
<defs>
<radialGradient id="lg" cx="50%" cy="40%" r="55%"><stop offset="0%" stop-color="#c0392b"/><stop offset="100%" stop-color="#5a0000"/></radialGradient>
<filter id="gw"><feGaussianBlur stdDeviation="1.8" result="b"/><feMerge><feMergeNode in="b"/><feMergeNode in="SourceGraphic"/></feMerge></filter>
</defs>
<polygon points="10,58 80,30 150,58 80,86" fill="url(#lg)"/>
<polygon points="12,57 80,32 148,57 80,82" fill="none" stroke="#B8860B" stroke-width="0.7" opacity="0.7"/>
<circle cx="80" cy="58" r="4" fill="#FFD700" filter="url(#gw)"/>
<circle cx="57" cy="46" r="2.5" fill="#FFD700" filter="url(#gw)"/>
<circle cx="103" cy="46" r="2.5" fill="#FFD700" filter="url(#gw)"/>
<circle cx="62" cy="70" r="2.5" fill="#FFD700" filter="url(#gw)"/>
<circle cx="98" cy="70" r="2.5" fill="#FFD700" filter="url(#gw)"/>
<circle cx="80" cy="36" r="2" fill="#FFD700" filter="url(#gw)"/>
<line x1="80" y1="58" x2="57" y2="46" stroke="#FFD700" stroke-width="1" opacity="0.7"/>
<line x1="80" y1="58" x2="103" y2="46" stroke="#FFD700" stroke-width="1" opacity="0.7"/>
<line x1="80" y1="58" x2="62" y2="70" stroke="#FFD700" stroke-width="1" opacity="0.7"/>
<line x1="80" y1="58" x2="98" y2="70" stroke="#FFD700" stroke-width="1" opacity="0.7"/>
<line x1="80" y1="58" x2="80" y2="36" stroke="#FFD700" stroke-width="1" opacity="0.7"/>
<line x1="150" y1="58" x2="158" y2="70" stroke="#B8860B" stroke-width="2"/>
<line x1="158" y1="70" x2="158" y2="100" stroke="#B8860B" stroke-width="2"/>
<circle cx="158" cy="70" r="3" fill="#FFD700" filter="url(#gw)"/>
<rect x="76" y="86" width="8" height="18" fill="#8B0000" rx="2"/>
<line x1="80" y1="104" x2="52" y2="120" stroke="#8B0000" stroke-width="2.5" stroke-linecap="round"/>
<line x1="80" y1="104" x2="108" y2="120" stroke="#8B0000" stroke-width="2.5" stroke-linecap="round"/>
<line x1="80" y1="104" x2="80" y2="122" stroke="#8B0000" stroke-width="2.5" stroke-linecap="round"/>
<line x1="52" y1="120" x2="32" y2="134" stroke="#B8860B" stroke-width="1.8" stroke-linecap="round"/>
<line x1="52" y1="120" x2="50" y2="138" stroke="#B8860B" stroke-width="1.8" stroke-linecap="round"/>
<line x1="108" y1="120" x2="128" y2="134" stroke="#B8860B" stroke-width="1.8" stroke-linecap="round"/>
<line x1="108" y1="120" x2="110" y2="138" stroke="#B8860B" stroke-width="1.8" stroke-linecap="round"/>
<line x1="80" y1="122" x2="66" y2="138" stroke="#B8860B" stroke-width="1.8" stroke-linecap="round"/>
<line x1="80" y1="122" x2="94" y2="138" stroke="#B8860B" stroke-width="1.8" stroke-linecap="round"/>
<circle cx="32" cy="134" r="3" fill="#B8860B"/>
<circle cx="50" cy="138" r="3" fill="#B8860B"/>
<circle cx="66" cy="138" r="3" fill="#B8860B"/>
<circle cx="94" cy="138" r="3" fill="#B8860B"/>
<circle cx="110" cy="138" r="3" fill="#B8860B"/>
<circle cx="128" cy="134" r="3" fill="#B8860B"/>
<circle cx="52" cy="120" r="3.5" fill="#8B0000"/>
<circle cx="108" cy="120" r="3.5" fill="#8B0000"/>
<!-- Text -->
<text x="180" y="74" font-family="Georgia,serif" font-size="48" font-weight="900" fill="#8B0000" letter-spacing="-1">proscholartools</text>
<line x1="180" y1="88" x2="468" y2="88" stroke="#B8860B" stroke-width="1.5" opacity="0.6"/>
<text x="468" y="122" font-family="Arial,sans-serif" font-size="30" font-weight="900" fill="#8B0000" text-anchor="end" direction="rtl">برو سكولر تولز</text>
<text x="180" y="148" font-family="Georgia,serif" font-size="12" font-weight="700" fill="#B8860B" letter-spacing="3">AI POWERED ACADEMIC PLATFORM</text>
</svg>